# xmcd
#
# Track frame offsets: 
#        150
#        22396
#        45513
#        70972
#        87340
#        106581
#        127024
#        144305
#        169991
#
# Disc length: 2508 seconds
#
# Revision: 0
# Processed by: cddbd v1.5.2PL0 Copyright (c) Steve Scherf et al.
# Submitted via: ExactAudioCopy v1.3
#
DISCID=7b09ca09
DTITLE=Blue Room - Dogs in the Shed (Updated Version)
DYEAR=2001
DGENRE=Blues
TTITLE0=Mary Anne
TTITLE1=Whose Been Talkin'
TTITLE2=The Moon Is Full
TTITLE3=Justine
TTITLE4=Born with the Blues
TTITLE5=Flamenco Dancer
TTITLE6=Exercise Your Mind
TTITLE7=Killin' Floor
TTITLE8=Let Me Love You
EXTD=
EXTT0=
EXTT1=
EXTT2=
EXTT3=
EXTT4=
EXTT5=
EXTT6=
EXTT7=
EXTT8=
PLAYORDER=
